<?xml version="1.0" standalone="no"?>
<!DOCTYPE svg PUBLIC "-//W3C//DTD SVG 20010904//EN"
 "http://www.w3.org/TR/2001/REC-SVG-20010904/DTD/svg10.dtd">
<svg version="1.0" xmlns="http://www.w3.org/2000/svg"
 width="800.000000pt" height="800.000000pt" viewBox="0 0 800.000000 800.000000"
 preserveAspectRatio="xMidYMid meet">
<metadata>
Created by potrace 1.14, written by Peter Selinger 2001-2017
</metadata>
<g transform="translate(0.000000,800.000000) scale(0.100000,-0.100000)"
fill="#000000" stroke="none">
<path d="M0 4000 l0 -4000 4000 0 4000 0 0 4000 0 4000 -4000 0 -4000 0 0
-4000z m1148 3528 l2 -178 125 0 125 0 0 180 0 180 2600 0 2600 0 0 -180 0
-180 125 0 125 0 0 180 0 180 250 0 250 0 0 -180 0 -180 178 0 179 0 7 -241
c3 -132 4 -245 1 -250 -4 -5 -86 -9 -186 -9 l-179 0 0 -125 0 -125 179 0 179
0 7 -62 c3 -35 5 -1204 3 -2598 l-3 -2535 -182 -3 -183 -2 0 -125 0 -125 183
-2 182 -3 0 -245 0 -245 -182 -3 -183 -2 0 -180 0 -180 -250 0 -250 0 0 180 0
180 -125 0 -125 0 -2 -182 -3 -183 -2597 -3 -2598 -2 0 185 0 185 -125 0 -125
0 -2 -182 -3 -183 -245 0 -245 0 -3 182 -2 183 -183 2 -182 3 0 245 0 245 183
3 182 2 0 125 0 125 -182 2 -183 3 -3 2565 c-1 1411 0 2580 3 2598 l6 32 179
0 180 0 0 125 0 125 -179 0 c-154 0 -180 2 -185 16 -8 20 -8 432 0 462 6 22 8
22 185 22 l179 0 0 180 0 180 248 -2 247 -3 3 -177z"/>
<path d="M780 7465 l0 -115 120 0 120 0 0 115 0 115 -120 0 -120 0 0 -115z"/>
<path d="M1530 7465 l0 -115 2470 0 2470 0 0 115 0 115 -2470 0 -2470 0 0
-115z"/>
<path d="M6986 7558 c-3 -13 -6 -65 -6 -115 l0 -93 120 0 120 0 0 115 0 115
-114 0 c-109 0 -114 -1 -120 -22z"/>
<path d="M420 7100 l0 -120 115 0 115 0 0 120 0 120 -115 0 -115 0 0 -120z"/>
<path d="M784 7207 c-2 -7 -3 -60 -2 -118 l3 -104 115 0 115 0 3 75 c2 41 0
94 -3 118 l-6 42 -110 0 c-81 0 -111 -3 -115 -13z"/>
<path d="M1150 7100 l0 -120 125 0 125 0 0 120 0 120 -125 0 -125 0 0 -120z"/>
<path d="M1537 7213 c-4 -3 -7 -87 -7 -185 l0 -178 -190 0 -190 0 0 -190 0
-190 -182 -2 -183 -3 -3 -2467 -2 -2468 185 0 185 0 0 -190 0 -190 190 0 190
0 2 -183 3 -182 2465 0 2465 0 3 183 2 182 190 0 190 0 0 190 0 190 183 2 182
3 0 2465 0 2465 -182 3 -183 2 0 190 0 190 -190 0 -190 0 -2 183 -3 182 -2461
3 c-1353 1 -2464 -1 -2467 -5z m3111 -258 c67 -56 98 -186 69 -286 -19 -65
-52 -100 -91 -97 -26 2 -26 3 -7 18 11 8 29 35 40 60 39 87 20 212 -40 269
l-23 21 -1301 0 c-1274 0 -1302 0 -1319 -19 -28 -31 -45 -91 -46 -161 0 -79
12 -125 42 -157 l21 -23 283 0 282 0 30 -34 c49 -56 69 -151 49 -231 -5 -20
13 0 52 60 34 49 65 91 70 93 5 2 33 -25 63 -58 l54 -61 83 32 c68 27 84 30
91 19 21 -34 54 -157 54 -205 l1 -52 60 1 c68 1 142 -29 209 -87 l39 -33 -40
-52 c-35 -43 -60 -95 -79 -160 -3 -9 -17 -3 -46 21 -72 58 -109 74 -52 23 28
-25 59 -57 68 -71 l16 -25 -52 22 c-43 18 -72 22 -151 21 l-99 0 46 46 c25 26
46 50 46 55 0 4 -9 -2 -20 -15 l-19 -24 -1 26 c0 41 -48 126 -90 159 -46 36
-55 37 -58 6 -3 -41 -21 -76 -39 -77 -49 -2 -64 -9 -109 -46 -71 -60 -121 -83
-176 -83 -37 0 -48 -4 -48 -16 0 -17 23 -44 39 -44 5 0 13 -5 17 -11 4 -8 -1
-9 -16 -4 -19 6 -21 4 -15 -17 20 -70 109 -147 170 -147 11 -1 67 35 125 78
l106 80 79 -10 c155 -18 255 -52 255 -87 0 -29 -46 -115 -86 -161 -35 -40
-145 -121 -165 -121 -24 0 -92 155 -115 260 l-14 65 5 -105 c4 -93 13 -146 40
-229 l7 -24 -102 5 -103 5 -39 -35 c-21 -19 -57 -63 -80 -98 -22 -35 -44 -64
-47 -64 -10 0 -64 36 -100 67 -31 27 -35 36 -39 91 -3 41 0 67 8 77 7 9 64 52
126 96 63 44 114 81 114 83 0 2 -21 1 -47 -1 -55 -5 -161 15 -244 46 -60 23
-210 118 -216 137 -2 6 8 25 22 42 14 16 25 33 25 36 0 3 -193 6 -430 6 -423
0 -430 0 -430 20 0 20 7 20 449 20 248 0 452 3 454 8 3 4 -15 39 -38 77 -24
39 -44 73 -44 77 -1 7 13 12 177 58 l112 33 0 33 0 34 -555 0 c-548 0 -555 0
-555 20 0 20 7 20 558 22 306 1 571 2 588 2 38 1 63 21 81 63 20 49 16 114
-10 164 -23 44 -24 44 -88 50 -35 4 -167 7 -292 8 l-229 1 -28 29 c-39 38 -64
127 -58 205 6 73 41 159 76 186 24 20 48 20 1343 20 l1317 0 30 -25z m-1028
-214 c5 -11 10 -51 10 -90 0 -54 3 -71 14 -71 9 0 17 17 21 53 11 81 20 97 54
97 42 0 55 -21 46 -76 -3 -26 -9 -53 -12 -60 -4 -10 4 -14 25 -14 23 0 32 6
42 30 9 23 19 30 39 30 31 0 51 -16 51 -42 0 -17 16 -18 248 -19 136 -1 239
-3 230 -6 -10 -2 -18 -10 -18 -18 0 -19 -67 -24 -291 -19 l-197 4 -35 -48
c-32 -45 -33 -48 -13 -45 23 5 155 -86 209 -144 l27 -29 -110 -17 c-132 -20
-266 -63 -377 -121 l-81 -44 -84 30 c-45 17 -121 38 -168 48 -84 17 -84 18
-45 25 54 10 79 24 43 25 -36 0 -58 10 -58 25 0 25 18 25 90 -1 63 -22 77 -24
123 -15 29 6 99 17 157 25 214 30 285 75 251 160 -6 15 -14 9 -50 -39 -23 -31
-45 -55 -47 -52 -3 2 11 49 31 103 19 55 35 100 35 102 0 9 -50 -1 -50 -10 -1
-7 -19 -58 -41 -113 l-40 -100 4 113 c3 100 2 112 -14 112 -18 0 -23 -19 -35
-127 -4 -35 -10 -63 -14 -63 -4 0 -12 33 -19 73 -19 110 -22 117 -40 117 -16
0 -16 -8 -4 -112 7 -62 11 -114 9 -115 -2 -2 -23 40 -46 94 -23 54 -46 102
-50 107 -10 10 -33 -31 -27 -47 3 -7 21 -48 41 -92 l36 -80 -45 49 c-24 28
-47 47 -50 45 -8 -8 15 -70 39 -104 l21 -30 -28 18 c-15 10 -32 15 -37 12 -6
-3 -15 5 -21 18 -6 13 -23 31 -37 40 -51 31 -132 109 -132 127 0 11 10 25 22
31 20 11 27 7 75 -47 50 -56 53 -58 53 -32 0 17 -17 52 -45 89 -46 63 -54 86
-33 107 25 25 55 13 82 -33 29 -48 37 -53 55 -31 8 10 7 29 -6 79 -20 77 -11
100 41 95 29 -3 32 -7 46 -68 12 -48 21 -66 34 -68 17 -4 18 2 11 72 -8 87 0
106 46 106 18 0 32 -7 39 -19z m1705 -200 c15 -34 16 -43 5 -56 -18 -22 -26
-9 -34 53 -8 61 2 62 29 3z m909 -53 c-35 -129 -84 -246 -146 -344 -29 -46
-53 -82 -55 -81 -1 2 4 27 12 57 25 93 27 90 -74 90 l-89 0 -9 -36 c-22 -94
-57 10 -49 146 7 105 30 224 39 200 11 -27 27 -158 27 -214 l0 -56 96 0 95 0
11 33 c22 64 150 297 164 297 1 0 -9 -42 -22 -92z m-1231 -33 c41 -49 61 -64
111 -83 l61 -22 -55 5 c-30 3 -80 5 -111 5 -53 0 -56 1 -72 35 l-17 35 25 -6
c14 -3 25 -3 25 0 0 4 -14 35 -31 69 -29 56 -29 60 -9 42 13 -11 45 -47 73
-80z m-493 50 c41 -21 59 -48 70 -105 6 -29 8 -55 6 -57 -2 -2 -86 -15 -187
-29 -101 -14 -207 -28 -236 -33 l-52 -8 -86 99 c-65 75 -91 98 -110 98 -30 0
-32 11 -4 36 24 22 52 10 57 -25 3 -16 10 -21 35 -21 18 0 100 -9 182 -20 181
-24 206 -24 231 -5 18 13 18 15 1 45 -9 18 -14 36 -11 42 7 12 67 2 104 -17z
m173 -11 c62 -14 84 -24 103 -47 25 -29 41 -73 31 -84 -3 -3 -34 -7 -69 -10
l-63 -5 -22 45 c-12 26 -39 65 -60 88 -29 32 -33 41 -18 36 11 -3 55 -13 98
-23z m977 -78 c12 -52 20 -100 18 -106 -6 -20 -70 70 -72 103 -2 26 20 97 30
97 1 0 12 -42 24 -94z m-177 12 c29 -29 65 -70 81 -90 27 -36 28 -40 16 -88
-12 -52 -7 -111 15 -163 12 -29 13 -27 17 41 4 84 16 102 51 79 32 -21 84 -76
107 -115 l20 -32 -43 -1 c-37 0 -40 -2 -23 -12 125 -78 170 -114 206 -165 44
-60 83 -170 95 -267 8 -56 9 -58 19 -33 l10 28 39 -63 c22 -34 53 -86 69 -115
l30 -52 -47 20 c-42 18 -75 25 -75 17 0 -2 8 -28 19 -58 23 -68 34 -155 23
-194 -16 -58 -131 -85 -208 -49 -41 19 -50 34 -65 106 -15 68 -56 110 -129
132 -70 21 -99 20 -165 -3 -66 -23 -142 -77 -180 -127 l-27 -35 26 -37 c34
-50 56 -105 56 -141 0 -29 1 -30 25 -19 51 23 155 -29 155 -77 0 -12 -13 -40
-29 -62 -45 -62 -108 -84 -274 -96 -76 -5 -140 -8 -142 -5 -3 3 10 31 30 63
79 131 27 220 -167 285 l-83 28 -36 70 c-50 97 -118 197 -184 271 -31 35 -55
71 -55 84 0 55 -47 123 -148 215 -97 88 -132 109 -132 78 0 -8 29 -74 65 -147
64 -132 78 -179 52 -179 -24 0 -101 56 -197 143 -52 48 -100 87 -107 87 -20 0
-15 -41 8 -80 11 -19 70 -82 130 -140 60 -58 109 -111 109 -118 0 -7 -25 -24
-55 -38 -61 -27 -125 -31 -217 -14 -70 13 -159 0 -234 -34 l-54 -25 -11 45
c-9 34 -23 54 -59 84 -26 22 -51 40 -54 40 -3 0 -6 -19 -6 -42 0 -49 -16 -114
-30 -123 -26 -16 -96 69 -129 158 -23 64 -28 188 -10 266 15 67 3 60 -19 -11
-35 -115 -37 -182 -6 -278 36 -116 110 -260 133 -260 4 0 19 25 35 56 56 115
56 -2 0 -138 -39 -95 -54 -92 -153 31 -18 23 -35 40 -37 38 -2 -2 8 -39 23
-83 18 -56 36 -88 60 -111 l34 -32 -30 -15 c-16 -9 -48 -18 -71 -22 -45 -7
-80 -33 -80 -59 0 -8 -7 -15 -16 -15 -28 0 -165 62 -208 94 -22 18 -48 36 -56
41 -25 16 80 -112 139 -168 l57 -55 -42 -21 c-62 -29 -78 -59 -70 -125 5 -44
3 -55 -10 -60 -27 -10 -67 -6 -124 14 -30 11 -65 19 -77 20 -18 0 -16 -6 22
-44 47 -49 91 -66 173 -66 l52 0 0 -51 c0 -45 -4 -54 -43 -96 -38 -40 -50 -46
-93 -50 -45 -5 -129 10 -189 33 -18 7 -19 6 -5 -11 17 -21 126 -75 152 -75 31
0 48 -12 48 -34 0 -13 19 -43 45 -71 25 -26 48 -58 51 -71 7 -29 -22 -120 -47
-145 -35 -35 -124 -15 -206 47 -18 13 -50 36 -70 52 l-38 27 31 -40 c43 -54
130 -136 177 -164 l38 -23 -25 -27 c-13 -14 -41 -53 -60 -85 -75 -125 -33
-197 152 -262 49 -17 68 -34 39 -34 -8 0 -31 -16 -53 -35 l-39 -35 40 7 c44 9
107 8 130 -1 10 -3 15 -19 15 -44 0 -38 -1 -40 -67 -70 -38 -17 -79 -32 -93
-34 l-25 -4 30 -14 c17 -7 58 -13 93 -12 59 1 62 0 62 -23 0 -13 4 -35 10 -50
9 -24 7 -27 -26 -41 -19 -8 -63 -21 -97 -29 l-62 -14 115 1 c122 1 115 3 208
-56 48 -31 78 -83 92 -159 13 -70 47 -127 76 -127 20 0 17 -15 -9 -58 -13 -20
-31 -57 -41 -82 l-18 -45 64 60 c34 34 78 71 96 84 29 21 36 22 63 10 18 -7
38 -26 47 -45 15 -32 14 -34 -13 -75 -16 -22 -54 -64 -85 -91 -61 -56 -49 -58
53 -7 l57 29 0 -78 c0 -149 43 -227 123 -227 36 0 52 8 107 53 86 70 137 89
191 73 52 -16 107 -73 153 -160 42 -80 43 -87 16 -96 -31 -10 -28 -130 7 -270
29 -117 40 -119 42 -5 1 61 31 212 54 275 12 33 19 40 38 37 13 -1 40 -15 59
-31 41 -33 42 -47 17 -163 -18 -81 -22 -238 -8 -320 l8 -46 -96 -7 c-118 -8
-364 9 -511 35 l-110 20 -94 74 c-52 41 -127 90 -168 110 -62 32 -81 37 -132
35 -54 -2 -61 0 -82 26 -45 57 -112 327 -131 527 -3 39 -9 64 -13 57 -12 -22
-33 -336 -25 -385 7 -49 7 -49 36 -32 17 11 22 10 35 -7 15 -20 45 -109 59
-174 l7 -33 -52 28 c-55 30 -127 99 -189 182 l-40 52 23 53 c27 60 76 277 63
277 -2 0 -19 -38 -36 -84 -17 -46 -45 -104 -62 -130 -35 -53 -31 -55 -83 35
l-27 47 32 53 c52 88 105 211 159 365 27 79 48 144 46 144 -3 0 -38 -69 -79
-152 -42 -84 -103 -195 -137 -246 -69 -104 -61 -103 -110 -16 l-22 42 24 53
c30 64 55 139 64 194 6 38 4 36 -56 -50 -34 -49 -67 -95 -73 -102 -9 -9 -24 2
-63 51 -59 72 -113 104 -153 90 -22 -8 -27 -17 -32 -60 -7 -55 -27 -101 -70
-155 -35 -45 -36 -51 -4 -43 36 9 68 -16 109 -86 41 -70 44 -85 17 -100 -23
-12 -31 -3 -41 44 -4 25 -11 31 -30 31 -20 0 -25 -5 -25 -25 0 -17 6 -26 20
-28 31 -6 46 -30 32 -53 -17 -27 -46 -24 -57 6 -11 28 -54 35 -63 11 -8 -21
17 -50 37 -43 25 10 66 -10 66 -32 0 -29 -34 -45 -60 -29 -16 10 -22 10 -35
-3 -21 -21 -9 -49 21 -49 13 0 24 5 24 10 0 6 11 16 25 22 21 10 27 8 39 -7
17 -23 2 -53 -29 -57 -14 -2 -20 -10 -20 -28 0 -20 5 -25 25 -25 21 0 26 5 28
32 4 40 20 53 50 42 25 -10 29 -41 7 -59 -19 -16 -19 -34 1 -50 12 -11 18 -10
32 4 14 13 14 20 4 36 -20 32 -15 67 10 74 29 7 41 -5 42 -46 1 -25 6 -34 22
-36 29 -4 51 23 34 43 -7 8 -18 15 -26 15 -7 0 -18 10 -25 21 -9 17 -8 25 6
38 15 15 18 14 38 -14 72 -97 96 -133 90 -139 -4 -3 -19 -6 -34 -6 -22 0 -32
-7 -45 -35 -56 -118 -219 -119 -280 -3 -11 20 -22 28 -42 28 -69 0 -142 80
-142 157 0 39 32 108 57 122 15 8 15 13 5 36 -16 35 -15 74 2 108 17 32 19 31
-51 11 -32 -9 -74 -14 -99 -11 l-43 4 -17 -51 c-13 -38 -33 -67 -80 -113 -73
-71 -113 -88 -219 -88 -56 0 -81 5 -126 28 -66 32 -132 99 -155 157 -15 38
-18 40 -58 40 -112 0 -233 90 -276 205 -42 113 -8 253 81 335 l38 35 -21 60
c-26 78 -21 164 16 239 85 174 308 229 465 116 l40 -29 50 33 c27 19 71 39 98
45 l49 12 -13 127 c-15 135 -45 304 -70 387 -16 54 -51 107 -87 130 -23 15
-91 11 -81 -5 3 -4 -2 -11 -11 -14 -22 -8 -55 33 -49 60 8 34 -26 68 -58 60
-39 -9 -48 -53 -17 -78 13 -10 29 -17 36 -14 7 3 22 -7 33 -22 19 -27 19 -27
-3 -55 -30 -38 -71 -29 -91 19 -11 28 -19 34 -44 34 -42 0 -59 -32 -36 -67 14
-21 22 -24 49 -19 18 3 47 1 64 -5 28 -10 32 -15 32 -49 0 -34 -3 -39 -29 -45
-17 -3 -38 -1 -49 6 -44 28 -96 -16 -72 -61 16 -30 57 -26 90 10 34 37 62 38
85 4 14 -22 15 -28 3 -46 -8 -11 -29 -26 -48 -32 -29 -9 -36 -16 -38 -43 -4
-40 27 -61 65 -44 20 9 24 18 22 44 -2 18 5 44 14 58 16 24 20 25 52 15 31
-10 35 -15 35 -46 0 -23 -7 -42 -20 -53 -11 -9 -20 -26 -20 -36 0 -25 35 -50
61 -44 39 11 49 73 14 87 -10 3 -15 19 -15 45 0 33 4 40 24 45 13 3 30 8 38
11 20 8 49 -46 36 -68 -12 -22 14 -67 38 -67 13 0 15 -13 10 -86 -3 -48 -11
-93 -18 -102 -39 -46 -172 -67 -242 -38 -48 20 -100 70 -121 116 -17 37 -21
40 -59 40 -50 0 -135 46 -165 89 -19 26 -21 43 -21 151 l0 122 39 40 c24 23
38 45 34 54 -4 11 6 14 50 14 l55 0 10 42 c8 32 8 49 -3 74 -11 28 -11 40 1
79 9 32 11 53 4 65 -6 10 -10 25 -10 33 0 19 51 37 106 37 42 0 124 -26 124
-39 0 -3 -9 -40 -20 -81 -25 -96 -25 -98 7 -58 15 18 116 124 225 234 109 111
198 209 198 218 0 38 -121 -3 -252 -86 -29 -19 -58 -37 -65 -41 -16 -10 -3 32
30 98 31 62 224 262 288 299 47 27 138 49 162 40 8 -3 25 -28 38 -56 63 -135
-2 -469 -110 -572 -39 -37 -89 -40 -124 -8 -13 12 -29 22 -35 22 -66 0 -99
-478 -37 -539 12 -12 17 -12 27 -3 17 17 36 15 42 -5 3 -10 10 -76 15 -148 5
-71 12 -138 16 -147 15 -37 43 -17 85 60 13 23 27 42 32 42 4 0 8 -36 8 -80 0
-61 -5 -90 -22 -124 -18 -37 -19 -47 -8 -60 18 -23 28 -20 32 12 4 24 5 25 12
7 4 -11 17 -42 27 -70 32 -80 44 -187 29 -253 -11 -51 -11 -57 6 -69 10 -7 22
-13 27 -13 5 0 6 50 3 113 -3 61 -8 175 -11 252 -6 140 -22 325 -31 356 -4 13
8 19 61 29 150 28 254 -22 313 -150 33 -71 38 -140 18 -220 -17 -65 -80 -228
-93 -241 -5 -5 -6 72 -5 169 2 111 0 173 -6 167 -5 -5 -19 -73 -31 -150 -32
-211 -44 -245 -69 -190 -6 14 -16 25 -22 25 -6 0 -24 -30 -41 -67 -16 -38 -35
-80 -43 -94 -12 -23 -11 -28 10 -55 13 -16 31 -44 40 -62 17 -37 12 -39 115
40 147 113 181 200 210 530 12 145 6 194 -32 242 -42 53 -169 101 -349 132
-93 15 -108 21 -129 46 -21 27 -29 29 -75 26 l-51 -3 0 57 c0 32 5 62 11 68 5
5 49 16 96 25 119 20 233 58 362 118 l109 51 -39 17 -39 18 65 1 c130 4 156
31 65 69 -73 30 -111 63 -125 107 -11 32 -10 38 9 58 20 20 31 21 163 20 120
-1 139 1 123 12 -10 7 -52 21 -94 29 -42 9 -80 18 -86 19 -14 4 65 26 94 26
24 0 24 0 5 22 -69 78 -228 180 -339 218 l-50 17 4 89 c2 66 -1 100 -13 128
-9 21 -16 40 -16 43 0 2 19 -8 43 -22 85 -53 239 -124 292 -135 50 -10 58 -9
89 9 18 12 43 21 55 21 29 0 74 -44 117 -115 44 -73 35 -37 -17 66 -61 122
-114 162 -165 124 -50 -38 -167 5 -302 112 l-72 57 52 54 c29 29 91 80 137
112 l83 60 62 -57 c100 -92 225 -164 429 -244 l48 -19 -6 68 c-21 234 -42 347
-89 476 l-25 70 25 29 c27 32 31 81 9 111 -33 44 -2 129 72 198 l29 28 36 -26
c50 -36 109 -123 169 -249 28 -58 52 -105 54 -105 2 0 -6 39 -16 88 -45 206
-74 268 -152 329 l-27 21 67 45 c38 24 95 58 128 76 l60 31 7 -38 c4 -20 14
-84 23 -141 30 -186 64 -263 98 -217 7 10 22 17 33 14 28 -5 88 -99 144 -228
27 -63 50 -111 50 -107 0 19 -54 219 -86 317 -40 125 -55 150 -77 131 -13 -10
-17 -9 -26 6 -12 23 -37 155 -46 245 l-7 67 53 16 c88 26 131 28 207 11 107
-24 143 -22 180 14 34 32 51 35 161 24 l61 -7 0 -71 c0 -60 5 -79 29 -121 26
-45 101 -128 101 -113 0 4 -14 40 -30 81 -32 80 -38 150 -19 206 11 30 12 31
74 31 l62 0 7 -66 c8 -77 30 -140 75 -209 l32 -50 -8 80 c-10 104 -7 151 13
203 16 42 16 42 67 42 l52 0 1 -73 c1 -39 8 -88 16 -107 l15 -35 8 45 c11 66
33 121 57 147 18 19 28 22 57 17 56 -10 73 -26 119 -112 l43 -81 -71 -7 c-39
-4 -68 -9 -65 -12 5 -5 315 -101 315 -98 0 1 -37 40 -83 86 -49 50 -93 106
-107 135 -31 66 -31 147 -1 238 21 63 25 67 52 67 23 0 43 -13 82 -52z m-2199
-100 c111 -76 131 -91 114 -85 -9 3 -36 11 -60 17 -76 20 -158 61 -158 80 0
43 28 40 104 -12z m3178 -115 c-22 -37 -63 -94 -91 -126 -28 -32 -49 -62 -46
-67 11 -18 -19 -104 -48 -136 -28 -33 -32 -34 -101 -34 -67 0 -96 10 -96 32 0
4 34 8 75 8 l74 0 26 37 c14 21 25 43 25 50 0 15 -16 17 -25 3 -8 -12 -49 -35
-43 -23 3 4 21 35 41 69 33 54 35 64 27 96 -17 60 -46 88 -91 88 -42 0 -51 13
-20 30 54 28 119 -3 142 -70 l11 -29 86 74 c47 41 88 73 90 70 3 -2 -14 -35
-36 -72z m-5132 17 c0 -18 -7 -20 -69 -20 -147 0 -229 -78 -207 -196 9 -44 65
-100 116 -114 19 -5 63 -10 98 -10 55 0 62 -2 62 -20 0 -18 -7 -20 -80 -20
-124 0 -175 27 -216 115 -40 85 -28 159 37 224 48 48 83 60 177 61 75 0 82 -2
82 -20z m5274 -302 c-10 -11 -64 -61 -119 -110 -114 -102 -219 -171 -309 -204
l-63 -23 -24 51 -24 51 45 39 c67 60 171 113 305 157 209 68 215 69 189 39z
m151 -258 c-61 -36 -65 -36 -65 -6 0 26 14 31 85 34 28 2 27 0 -20 -28z m-105
-23 c0 -28 -5 -36 -34 -50 -40 -19 -187 -50 -212 -45 -29 6 151 100 244 127 1
1 2 -14 2 -32z m-3277 -223 c21 -130 30 -295 19 -312 -7 -11 -27 -4 -93 34
-100 56 -187 114 -235 156 l-34 30 137 93 c76 51 147 103 158 115 18 20 19 20
26 2 4 -10 14 -63 22 -118z m-1195 -6 c17 -56 30 -104 28 -105 -1 -1 -29 38
-61 89 -55 86 -58 91 -40 104 10 8 24 14 30 14 6 0 26 -46 43 -102z m72 12 c0
-49 -2 -90 -4 -90 -2 0 -14 37 -26 81 -18 67 -19 83 -8 90 33 21 38 10 38 -81z
m-169 -42 c35 -61 66 -116 68 -122 2 -6 -42 33 -97 88 l-100 99 26 23 c15 13
30 24 33 24 3 0 34 -50 70 -112z m245 85 c-17 -71 -27 -103 -31 -103 -3 0 -5
29 -5 65 0 59 2 65 21 65 18 0 20 -4 15 -27z m-338 -142 c48 -43 96 -88 107
-100 l19 -22 -29 11 c-17 6 -78 36 -137 67 l-107 55 22 34 c12 19 25 34 30 34
4 0 47 -35 95 -79z m2712 54 c7 -9 11 -18 8 -20 -22 -22 -313 -47 -331 -29 -4
4 24 17 61 29 93 32 98 33 178 34 53 1 75 -3 84 -14z m-2292 -26 c-6 -17 -8
-45 -5 -64 5 -33 5 -33 -28 -28 -19 3 -54 -2 -80 -10 -33 -12 -45 -13 -42 -4
4 13 148 137 159 137 4 0 2 -14 -4 -31z m4242 0 l0 -32 -47 7 c-95 13 -174 28
-169 33 7 8 104 20 164 22 52 1 52 1 52 -30z m214 15 c167 -26 157 -32 -86
-50 l-88 -7 0 37 c0 35 1 36 36 36 20 0 82 -7 138 -16z m-4924 -154 c74 -44
131 -80 127 -80 -12 0 -158 37 -239 61 l-66 19 15 40 c9 22 19 40 22 40 3 0
67 -36 141 -80z m2894 -35 c10 -28 -141 -113 -274 -154 l-65 -20 40 36 c22 19
62 50 90 69 l50 34 -380 0 c-361 0 -378 1 -362 18 16 15 55 17 440 22 232 3
429 6 438 8 9 1 19 -5 23 -13z m-2397 -42 c73 -48 69 -179 -7 -218 -46 -24
-113 -19 -149 10 -125 106 19 297 156 208z m4098 -8 c102 -23 115 -30 115 -66
0 -30 -1 -31 -32 -25 -41 8 -193 82 -209 103 -14 16 6 14 126 -12z m-4613 -21
c70 -20 128 -41 128 -46 0 -9 -148 -9 -246 0 -48 4 -51 6 -47 31 7 42 12 51
25 51 7 0 70 -16 140 -36z m4387 -3 c45 -23 130 -88 188 -144 l42 -40 113 2
c77 1 132 -3 172 -14 169 -45 277 -161 307 -329 31 -180 -35 -347 -172 -436
-89 -57 -161 -73 -315 -68 -122 3 -133 5 -199 36 -38 18 -81 43 -94 55 l-23
22 6 -35 7 -35 -21 25 c-32 39 -118 183 -144 243 -28 62 -80 227 -74 233 3 2
27 -31 54 -73 l49 -76 6 74 c4 41 16 95 27 120 15 34 17 50 9 64 -8 15 -7 17
7 12 11 -5 28 6 52 33 20 22 58 54 85 72 27 17 48 32 46 34 -1 1 -45 19 -97
41 -88 36 -210 107 -210 121 0 5 121 76 138 81 1 1 20 -8 41 -18z m-1312 -48
c40 -21 73 -41 73 -44 0 -14 -97 -68 -175 -97 -102 -40 -253 -84 -266 -80 -21
7 260 257 290 258 3 0 39 -17 78 -37z m979 -3 l27 0 -23 -25 c-35 -38 -96 -57
-170 -53 l-65 3 57 32 c31 18 62 42 68 52 9 19 13 19 45 5 19 -7 47 -14 61
-14z m819 -42 c6 -6 -8 -7 -40 -3 -63 9 -65 11 -65 42 l0 25 48 -27 c26 -15
52 -32 57 -37z m-1079 -7 c-7 -23 -24 -57 -37 -76 l-23 -34 -14 32 c-7 18 -22
41 -33 53 l-19 21 42 12 c24 7 54 19 68 26 14 7 26 12 28 10 1 -1 -4 -21 -12
-44z m-3676 -6 c0 -5 -252 -87 -255 -83 -1 2 -5 20 -8 40 l-6 37 77 4 c153 6
192 7 192 2z m-600 -75 c23 -23 24 -33 10 -61 -9 -17 -22 -19 -103 -19 -101 0
-117 7 -117 52 0 38 22 47 113 48 64 0 80 -3 97 -20z m610 -4 c0 -5 -148 -92
-171 -101 -10 -4 -19 3 -28 21 -6 15 -10 28 -9 29 5 5 181 53 196 54 6 1 12
-1 12 -3z m198 -76 c-4 -10 -118 -132 -118 -127 0 3 9 24 19 48 11 24 26 61
35 82 15 38 15 38 41 21 14 -9 24 -20 23 -24z m-214 -2 c-87 -97 -87 -98 -101
-87 -25 21 -13 38 55 78 37 23 69 41 71 41 3 0 -8 -15 -25 -32z m21 -77 c-28
-57 -42 -69 -51 -46 -5 11 6 30 32 56 21 21 39 39 41 39 2 0 -8 -22 -22 -49z
m3633 -18 c21 -109 24 -180 13 -269 -13 -99 -59 -304 -71 -317 -9 -10 -53 172
-71 292 -6 46 -9 122 -6 168 5 84 5 85 43 117 21 17 46 39 54 48 23 25 27 22
38 -39z m-4048 32 c0 -13 -43 -15 -325 -15 -284 0 -324 2 -319 15 5 13 51 15
325 15 277 0 319 -2 319 -15z m3389 -47 c-78 -100 -217 -209 -314 -244 -25
-10 72 104 132 155 35 29 199 131 211 131 2 0 -11 -19 -29 -42z m-2187 -198
c61 -59 74 -87 37 -77 -12 3 -35 3 -51 0 l-29 -6 31 -18 c72 -44 20 -84 -121
-94 -103 -8 -129 -13 -129 -25 0 -5 44 -30 97 -55 137 -64 174 -104 96 -105
-13 0 -23 -4 -23 -10 0 -5 11 -10 24 -10 46 0 37 -20 -25 -60 -102 -66 -230
-105 -323 -98 l-43 3 79 185 c88 206 163 405 173 462 l7 38 71 -38 c39 -20 97
-62 129 -92z m-1178 95 c5 -13 -36 -15 -334 -15 -298 0 -339 2 -334 15 5 13
52 15 334 15 282 0 329 -2 334 -15z m3481 -144 c-32 -60 -80 -138 -109 -174
-61 -77 -137 -160 -141 -155 -6 5 91 194 128 249 50 75 171 213 175 200 2 -6
-22 -60 -53 -120z m779 11 c34 -108 50 -228 41 -310 -9 -78 -11 -74 -51 73
-19 70 -24 115 -24 203 0 61 2 112 5 112 2 0 15 -35 29 -78z m-554 -146 c-7
-33 -26 -98 -43 -145 l-32 -86 -3 64 c-4 90 13 185 51 288 l32 88 3 -75 c2
-41 -2 -102 -8 -134z m-3390 162 c28 -46 27 -67 -2 -41 -13 11 -30 23 -38 25
-17 6 -94 -44 -108 -69 -8 -13 -11 -10 -20 18 -25 82 -26 79 33 79 30 0 57 5
60 10 14 22 55 10 75 -22z m-316 -33 c5 -13 -36 -15 -334 -15 -298 0 -339 2
-334 15 5 13 52 15 334 15 282 0 329 -2 334 -15z m178 -105 c12 -20 28 -33 50
-37 l33 -7 -35 -8 c-41 -9 -93 -1 -84 13 3 6 0 16 -6 24 -10 12 -10 18 0 30
17 21 23 19 42 -15z m-178 -45 c5 -13 -36 -15 -334 -15 -298 0 -339 2 -334 15
5 13 52 15 334 15 282 0 329 -2 334 -15z m0 -150 c5 -13 -36 -15 -334 -15
-298 0 -339 2 -334 15 5 13 52 15 334 15 282 0 329 -2 334 -15z m0 -150 c5
-13 -36 -15 -334 -15 -298 0 -339 2 -334 15 5 13 52 15 334 15 282 0 329 -2
334 -15z m446 -359 c0 -13 3 -33 6 -43 5 -13 0 -11 -21 9 -24 23 -26 29 -15
42 18 23 30 20 30 -8z m3412 -15 c76 -32 196 -109 232 -149 16 -19 17 -24 5
-39 -8 -9 15 12 51 48 136 137 295 168 456 89 71 -35 146 -111 176 -178 73
-162 -9 -414 -158 -488 -29 -14 -59 -19 -120 -18 -69 0 -88 4 -127 27 -25 15
-55 39 -67 54 -14 19 -18 21 -11 7 14 -29 61 -67 102 -84 19 -8 37 -19 41 -24
4 -6 8 -53 8 -105 0 -84 -2 -92 -17 -87 -35 14 -99 17 -139 8 l-41 -9 -17 59
c-33 119 -109 229 -188 271 -32 17 -32 17 -8 0 113 -82 175 -187 194 -331 7
-52 6 -53 -26 -70 -17 -9 -87 -73 -155 -141 -117 -118 -126 -124 -171 -129
-26 -2 -53 -9 -59 -15 -31 -24 -9 13 28 48 42 41 89 124 89 160 0 81 -63 166
-121 164 l-34 -1 33 -8 c43 -10 71 -36 94 -87 20 -46 18 -94 -8 -144 -17 -34
-99 -109 -121 -110 -96 -3 -211 4 -232 16 -123 64 -170 319 -90 489 29 63 93
132 153 166 54 31 57 41 4 14 -17 -9 -53 -37 -80 -62 -47 -44 -49 -45 -86 -34
-102 31 -180 114 -203 217 -16 74 -7 199 19 258 26 57 120 159 182 195 86 51
136 63 240 59 79 -3 108 -9 172 -36z m-543 -797 c3 -2 -4 -11 -15 -19 -16 -12
-118 -14 -689 -15 -658 0 -670 0 -683 20 -12 20 -8 20 420 22 479 3 960 -1
967 -8z m-1054 -96 c-14 -64 -65 -94 -65 -39 0 20 9 36 26 50 37 29 47 26 39
-11z m-154 -110 c10 -18 8 -19 -13 -13 -30 10 -32 11 -24 30 7 19 21 12 37
-17z m559 -1 c0 -25 -40 -57 -70 -57 -33 0 -35 2 -19 31 17 33 89 53 89 26z
m-1563 -173 c54 -44 138 -170 158 -237 12 -38 14 -72 9 -128 -5 -65 -3 -82 12
-109 24 -40 122 -106 237 -158 48 -23 87 -42 87 -44 0 -2 -16 -2 -35 0 -20 2
-50 -2 -68 -9 -31 -14 -30 -14 48 -19 l79 -5 9 -38 c5 -21 8 -40 5 -42 -2 -2
-51 3 -108 12 -106 16 -137 30 -162 76 -13 25 -6 30 28 17 24 -9 19 -1 -32 52
-33 35 -80 90 -105 122 -97 129 -129 173 -165 226 -21 30 -41 57 -44 60 -4 3
-23 28 -42 57 l-35 52 18 53 c10 29 18 68 19 86 0 31 1 32 23 21 12 -6 41 -27
64 -45z m1237 24 c16 -22 22 -88 9 -88 -21 0 -43 37 -43 72 0 43 12 48 34 16z
m944 -7 c43 -11 96 -22 118 -26 31 -5 54 -19 92 -55 l50 -49 -30 -10 c-17 -6
-44 -11 -59 -11 -16 0 -29 -5 -29 -11 0 -20 -66 -2 -149 40 -43 22 -82 37 -86
33 -5 -4 -5 -2 -2 4 4 7 -3 14 -17 18 -27 7 -44 36 -21 36 8 0 15 5 15 10 0 6
7 10 15 10 8 0 15 7 15 15 0 19 -4 19 88 -4z m-729 -7 c18 -13 20 -18 10 -25
-34 -21 -109 1 -109 33 0 14 75 9 99 -8z m326 -90 c28 -11 -21 -54 -61 -54
-44 0 -50 14 -18 39 27 22 50 26 79 15z m-344 -75 c13 -26 3 -92 -14 -86 -7 2
-19 15 -27 29 -11 21 -12 31 -2 52 14 31 28 33 43 5z m1519 -210 c30 -30 86
-73 124 -94 l68 -38 -38 -34 c-22 -18 -74 -60 -116 -93 l-77 -60 -58 22 c-86
33 -152 103 -182 193 l-24 71 88 112 89 112 35 -67 c20 -37 61 -93 91 -124z
m-1695 168 c24 -18 11 -37 -24 -37 -31 0 -57 23 -46 40 9 14 48 13 70 -3z
m372 -19 c31 -29 29 -38 -9 -38 -30 0 -78 32 -78 52 0 17 64 7 87 -14z m2532
-68 c130 -66 134 -251 8 -324 l-42 -24 -472 -4 c-259 -1 -475 0 -479 4 -4 4
-1 14 6 23 11 13 72 15 469 15 425 0 459 1 491 19 47 25 71 60 77 112 5 49
-19 95 -70 133 -27 20 -41 21 -368 24 -334 3 -339 3 -326 22 11 19 25 20 340
20 307 0 330 -1 366 -20z m-4499 -10 c10 -7 -5 -9 -50 -9 -51 1 -58 3 -35 9
43 11 68 11 85 0z m2851 -118 c-7 -2 -18 1 -23 6 -8 8 -4 9 13 5 13 -4 18 -8
10 -11z m160 -247 c24 -22 63 -49 87 -59 23 -11 42 -23 42 -27 0 -5 -46 -32
-102 -60 l-102 -51 -44 23 c-63 34 -132 98 -148 136 -21 49 -19 130 4 136 9 3
-6 3 -35 1 -29 -1 -66 1 -82 6 -22 6 -36 3 -62 -13 l-34 -22 36 -3 36 -3 -5
-48 c-7 -80 47 -174 142 -243 l38 -28 -28 -11 c-42 -16 -243 -66 -301 -74
l-49 -6 -17 73 c-26 111 -30 168 -17 233 15 73 38 94 102 95 38 0 50 4 63 23
28 43 86 67 163 67 39 0 82 -4 96 -10 27 -10 88 9 102 31 4 7 20 -18 39 -57
20 -43 48 -84 76 -109z m-3301 148 c0 -10 9 -33 20 -50 l20 -33 124 0 c100 0
126 -3 137 -16 10 -13 10 -17 -2 -25 -17 -11 -128 -11 -223 0 -55 6 -72 12
-87 32 -27 35 -42 91 -26 101 20 13 37 9 37 -9z m3689 -177 c42 -22 89 -81
101 -126 13 -49 -7 -133 -43 -182 -50 -67 -151 -99 -242 -75 -20 5 -25 4 -16
-2 12 -8 13 -16 2 -53 -49 -161 -145 -248 -275 -248 -75 0 -130 24 -174 75
-37 42 -49 67 -52 111 -4 58 0 74 30 107 l30 34 -32 9 c-17 5 -33 14 -35 20
-2 6 29 23 69 39 40 15 112 48 160 72 48 23 92 43 97 43 12 0 -3 -56 -21 -78
-11 -13 -11 -14 0 -8 9 5 25 -2 45 -21 46 -41 79 -64 42 -28 -17 17 -39 40
-49 53 -18 21 -18 23 -1 42 10 11 28 20 39 20 12 0 32 7 44 16 21 14 24 14 53
-10 33 -28 70 -41 91 -33 7 3 1 6 -14 6 -15 1 -42 14 -60 29 l-31 29 43 39
c39 36 161 132 168 134 2 0 16 -7 31 -14z m-2661 -158 c45 -33 82 -63 82 -66
0 -4 -40 -38 -90 -75 l-89 -67 -50 10 c-58 11 -118 39 -144 67 -17 20 -16 21
28 37 25 10 45 22 45 27 0 5 -20 19 -45 31 -24 12 -42 25 -39 30 11 17 99 62
133 68 57 9 81 1 169 -62z m604 -87 c63 -27 126 -53 141 -56 37 -10 34 -20
-10 -38 -95 -37 -106 -35 -204 39 -49 37 -89 69 -89 72 0 6 33 31 41 32 3 0
57 -22 121 -49z m2422 -43 c48 -95 31 -244 -36 -315 -21 -23 -26 -23 -255 -23
-232 0 -233 0 -216 20 16 19 30 20 220 20 177 0 204 2 219 17 40 41 60 132 44
212 -14 75 -40 101 -102 101 -41 0 -48 3 -48 19 0 17 8 20 48 23 67 4 95 -13
126 -74z m-2559 -48 c-16 -45 -17 -44 78 -56 33 -4 68 -15 82 -26 31 -24 61
-80 70 -131 l7 -37 112 0 111 0 28 40 c30 43 128 130 145 130 15 0 6 -22 -40
-99 -21 -34 -38 -65 -38 -67 0 -2 8 -4 18 -4 11 0 38 28 70 75 51 72 72 95 72
78 0 -4 -9 -40 -20 -78 -11 -38 -20 -71 -20 -73 0 -2 10 -2 22 0 17 2 26 18
46 76 13 39 28 72 32 72 5 0 10 -33 12 -72 2 -59 6 -73 20 -76 13 -3 18 9 23
63 4 36 11 67 15 70 5 3 16 -26 26 -65 15 -55 22 -70 37 -70 15 0 18 6 13 28
-13 69 -16 122 -9 122 5 0 27 -33 50 -72 28 -51 47 -74 62 -76 27 -4 27 -4 -9
73 -35 75 -35 71 -13 79 10 4 15 4 12 1 -4 -3 28 -39 71 -80 l76 -75 125 0
c119 0 149 -6 149 -32 0 -4 -57 -8 -126 -8 -84 0 -123 -3 -119 -10 4 -6 -1
-22 -9 -35 -24 -36 -56 -32 -84 10 -16 25 -29 35 -48 35 -17 0 -25 -5 -22 -12
47 -130 47 -141 3 -158 -45 -17 -62 1 -81 90 -11 51 -22 80 -31 80 -16 0 -16
-14 -1 -112 13 -88 5 -108 -42 -108 -44 0 -55 23 -56 124 -1 75 -4 92 -18 94
-14 3 -16 -8 -16 -70 0 -112 -35 -155 -90 -110 -22 18 -23 21 -11 78 6 32 14
69 17 82 5 18 2 22 -18 22 -21 0 -29 -9 -45 -52 -25 -65 -42 -77 -77 -55 -29
20 -33 44 -11 73 8 10 15 22 15 27 0 4 -95 7 -211 7 -184 0 -210 -2 -205 -15
21 -51 22 -49 -27 -42 -51 7 -94 26 -143 63 -30 22 -32 29 -43 121 -7 54 -14
106 -17 116 -3 10 0 17 9 17 8 0 22 20 31 45 15 39 20 44 36 35 18 -9 18 -13
5 -50z m-333 -102 c-7 -51 -20 -107 -27 -125 -18 -41 -88 -82 -154 -90 l-51
-6 16 47 c9 26 14 50 11 53 -5 5 -30 -2 -79 -22 -46 -18 -1 142 53 191 14 13
53 24 127 35 59 8 109 14 112 13 3 -2 0 -45 -8 -96z m812 63 c3 -5 -1 -12 -10
-15 -25 -10 -34 -7 -34 9 0 16 35 21 44 6z m776 -35 c0 -29 -25 -36 -55 -16
l-28 19 34 9 c38 10 49 7 49 -12z m-724 -41 c-33 -30 -65 -55 -73 -55 -19 0
-28 29 -16 49 14 21 93 60 123 60 23 0 19 -5 -34 -54z m-667 -52 c63 -85 63
-86 58 -138 -6 -57 -33 -119 -65 -148 -19 -17 -20 -17 -35 22 -9 21 -21 42
-26 46 -6 3 -21 -15 -34 -41 l-24 -47 -28 37 c-49 64 -67 144 -44 189 20 35
119 167 127 167 4 -1 36 -40 71 -87z m938 81 c-3 -3 -12 -4 -19 -1 -8 3 -5 6
6 6 11 1 17 -2 13 -5z m66 -11 c-7 -2 -19 -2 -25 0 -7 3 -2 5 12 5 14 0 19 -2
13 -5z m315 -29 c29 -19 55 -41 58 -49 8 -20 -14 -55 -36 -55 -20 0 -120 106
-120 127 0 24 45 13 98 -23z"/>
<path d="M3113 6022 c-6 -48 -10 -88 -8 -90 2 -2 15 14 29 35 31 45 35 102 8
126 -17 16 -19 13 -29 -71z"/>
<path d="M4420 6087 c0 -4 9 -30 21 -59 41 -103 123 -198 279 -318 24 -19 96
-81 159 -137 63 -57 118 -103 123 -103 15 0 -59 132 -104 186 -50 60 -103 106
-218 189 -45 33 -122 102 -171 154 -49 51 -89 91 -89 88z"/>
<path d="M5161 5950 c-65 -140 -83 -268 -61 -424 11 -71 19 -92 28 -68 8 24
61 80 81 85 17 4 19 -3 23 -87 5 -92 35 -236 49 -236 4 0 10 8 13 18 15 46 70
115 113 142 61 39 107 51 218 59 l90 7 -60 13 c-83 19 -178 9 -263 -27 l-70
-29 -17 41 c-9 22 -19 75 -22 116 -5 73 -4 76 30 128 26 37 31 52 21 52 -27 0
-58 -21 -100 -67 l-41 -46 -17 48 c-24 71 -20 166 10 269 14 49 23 90 21 92
-2 2 -23 -36 -46 -86z"/>
<path d="M5626 5985 c10 -48 41 -114 79 -166 19 -27 35 -55 35 -62 0 -7 11
-36 25 -63 28 -56 74 -98 152 -138 l52 -26 -45 108 c-25 59 -58 152 -74 207
l-28 100 -4 -70 -3 -70 -71 70 c-38 39 -82 86 -97 105 l-27 35 6 -30z m244
-295 c27 -55 50 -102 50 -105 0 -13 -64 32 -96 68 -26 28 -34 46 -34 75 0 31
13 62 27 62 2 0 25 -45 53 -100z"/>
<path d="M2540 3701 l-45 -7 75 -12 c112 -20 279 -61 328 -82 23 -11 42 -15
42 -10 0 5 -22 33 -49 62 l-49 53 -128 1 c-71 1 -149 -1 -174 -5z"/>
<path d="M1950 3070 c-27 -27 -25 -56 5 -86 20 -20 25 -35 25 -73 0 -45 -2
-49 -27 -54 -16 -3 -35 -8 -43 -11 -22 -9 -63 59 -55 91 4 16 0 34 -10 49 -31
48 -115 21 -115 -38 0 -30 38 -60 69 -56 22 3 33 -3 53 -31 l26 -36 -32 -37
c-31 -36 -32 -36 -74 -25 -36 10 -42 15 -42 38 0 50 -68 79 -104 43 -21 -20
-20 -68 1 -89 12 -13 27 -16 57 -12 23 3 60 1 84 -5 l43 -11 -3 -50 c-3 -48
-4 -51 -41 -63 -34 -12 -40 -11 -57 6 -40 40 -100 12 -100 -45 0 -67 83 -86
114 -27 9 18 28 32 53 40 37 12 39 11 65 -21 15 -17 28 -35 28 -39 1 -21 -54
-67 -83 -70 -22 -2 -36 -11 -47 -30 -13 -25 -13 -31 0 -55 37 -67 138 -23 112
47 -7 19 -5 32 11 55 11 17 21 31 22 33 1 1 23 -3 49 -10 l46 -12 0 -48 c0
-37 -5 -52 -25 -72 -30 -30 -32 -59 -5 -86 39 -39 95 -19 106 36 5 26 1 35
-20 51 -22 18 -26 29 -26 72 0 39 4 51 15 51 9 0 29 7 45 15 28 15 30 14 54
-18 23 -30 24 -37 14 -64 -10 -26 -9 -35 5 -57 33 -50 117 -24 117 36 0 25
-36 58 -63 58 -16 0 -32 12 -49 36 l-26 36 26 39 c14 22 31 38 38 35 7 -3 30
-10 53 -17 24 -7 43 -20 47 -31 3 -10 16 -26 30 -34 51 -34 112 23 86 81 -15
33 -67 43 -95 17 -21 -18 -25 -19 -74 -4 l-53 15 0 47 0 47 51 16 51 17 20
-25 c38 -48 99 -24 101 39 2 68 -58 88 -108 36 -29 -30 -114 -66 -125 -53 -3
5 -16 20 -29 35 l-24 27 27 36 c15 19 34 35 42 35 9 0 14 11 14 33 l1 32 19
-23 20 -24 10 26 c11 31 4 53 -21 66 -55 30 -113 -14 -92 -70 9 -25 7 -32 -16
-59 -25 -30 -27 -30 -68 -19 l-43 12 0 53 c0 29 4 53 10 53 17 0 42 48 35 69
-16 52 -69 67 -105 31z"/>
<path d="M3516 2223 c15 -63 69 -204 107 -283 91 -186 255 -295 563 -375 53
-14 99 -24 100 -22 2 2 -22 14 -54 27 -114 46 -295 144 -371 200 -107 79 -209
217 -310 418 -34 67 -45 78 -35 35z"/>
<path d="M4323 1909 c-24 -11 -43 -25 -43 -31 0 -20 69 -153 95 -183 l26 -30
-6 30 c-3 17 -9 76 -12 133 -3 56 -8 102 -12 101 -3 0 -25 -9 -48 -20z"/>
<path d="M4085 1859 c12 -39 41 -81 86 -124 l41 -40 -8 40 c-5 22 -8 61 -8 88
l1 47 -36 0 c-20 0 -47 3 -60 7 -21 5 -23 3 -16 -18z"/>
<path d="M2305 5095 c-52 -51 -16 -145 55 -145 37 0 90 47 90 80 0 29 -26 76
-45 84 -35 13 -76 6 -100 -19z"/>
<path d="M6584 4848 c-36 -56 -79 -159 -99 -234 -30 -115 -12 -244 51 -369 43
-84 75 -137 80 -132 2 2 -4 44 -13 93 -24 123 -24 473 0 594 9 46 14 86 12 88
-2 2 -16 -16 -31 -40z"/>
<path d="M6663 4850 c-33 -132 -46 -255 -40 -389 5 -113 37 -334 50 -348 6 -5
36 141 47 227 19 150 3 386 -34 515 l-12 40 -11 -45z"/>
<path d="M6734 4870 c3 -14 13 -79 22 -145 18 -136 14 -378 -10 -525 -7 -47
-12 -86 -11 -88 7 -8 76 131 101 203 38 109 40 255 6 359 -25 75 -71 169 -97
201 -16 20 -16 20 -11 -5z"/>
<path d="M6465 4865 c-66 -49 -159 -156 -191 -219 -58 -117 -46 -220 40 -340
24 -33 63 -79 87 -101 l42 -40 -36 51 c-20 28 -51 82 -69 120 -76 160 -35 338
113 499 44 47 47 54 14 30z"/>
<path d="M6487 4828 c-146 -172 -181 -328 -109 -482 27 -57 149 -222 158 -213
2 2 -7 28 -20 58 -53 120 -70 198 -70 314 -1 119 12 175 66 298 16 38 27 71
25 73 -3 3 -25 -19 -50 -48z"/>
<path d="M6812 4870 c3 -8 20 -50 38 -93 80 -200 78 -356 -9 -566 -17 -41 -29
-76 -27 -78 6 -6 125 145 145 186 79 154 63 293 -53 455 -45 63 -104 123 -94
96z"/>
<path d="M6908 4825 c29 -33 72 -98 95 -144 41 -81 42 -88 42 -180 0 -88 -3
-102 -33 -165 -17 -38 -49 -92 -69 -120 l-36 -51 42 40 c54 51 123 147 144
203 10 23 17 71 17 106 0 89 -46 178 -137 268 -91 91 -131 117 -65 43z"/>
<path d="M5720 3409 c-7 -11 -10 -23 -7 -25 2 -2 9 7 15 21 14 30 7 33 -8 4z"/>
<path d="M5220 3364 l-35 -14 45 7 c51 7 54 7 94 5 43 -3 104 -68 112 -120 4
-23 10 -42 15 -42 11 0 12 -2 -6 56 -30 100 -128 148 -225 108z"/>
<path d="M5686 3324 c-4 -14 -5 -28 -3 -31 3 -2 8 8 11 23 4 14 5 28 3 31 -3
2 -8 -8 -11 -23z"/>
<path d="M6035 3316 c-92 -43 -141 -166 -99 -251 8 -16 12 -21 8 -10 -44 145
48 282 176 261 21 -3 47 -9 57 -12 14 -5 15 -4 7 5 -17 19 -114 24 -149 7z"/>
<path d="M5671 3264 c0 -11 3 -14 6 -6 3 7 2 16 -1 19 -3 4 -6 -2 -5 -13z"/>
<path d="M5655 3185 c-4 -31 -5 -58 -3 -61 3 -2 8 21 12 52 4 31 5 59 2 61 -2
3 -8 -21 -11 -52z"/>
<path d="M5441 3155 c0 -17 -6 -36 -13 -43 -9 -9 0 -12 43 -11 47 1 49 2 19 8
-30 5 -36 11 -41 41 -6 35 -6 35 -8 5z"/>
<path d="M5637 3090 c-3 -11 -1 -20 4 -20 5 0 9 9 9 20 0 11 -2 20 -4 20 -2 0
-6 -9 -9 -20z"/>
<path d="M5368 3093 c7 -3 16 -2 19 1 4 3 -2 6 -13 5 -11 0 -14 -3 -6 -6z"/>
<path d="M5568 3093 c7 -3 16 -2 19 1 4 3 -2 6 -13 5 -11 0 -14 -3 -6 -6z"/>
<path d="M5737 1605 c-15 -14 -24 -25 -19 -25 5 0 19 11 32 25 30 32 23 32
-13 0z"/>
<path d="M5399 1503 c-13 -16 -12 -17 4 -4 9 7 17 15 17 17 0 8 -8 3 -21 -13z"/>
<path d="M5361 1476 c-9 -11 -9 -16 -1 -21 7 -4 20 -21 31 -39 10 -17 19 -26
19 -20 0 6 -9 23 -21 38 -11 15 -18 33 -15 41 7 19 2 19 -13 1z"/>
<path d="M5574 1436 c11 -9 24 -16 30 -16 12 0 7 5 -24 19 -24 11 -24 11 -6
-3z"/>
<path d="M5412 1360 c0 -14 2 -19 5 -12 2 6 2 18 0 25 -3 6 -5 1 -5 -13z"/>
<path d="M5384 1306 c-11 -12 -29 -27 -40 -34 -10 -7 -5 -6 12 2 29 14 61 43
53 49 -2 2 -13 -6 -25 -17z"/>
<path d="M6600 7100 l0 -120 125 0 125 0 0 120 0 120 -125 0 -125 0 0 -120z"/>
<path d="M6987 7213 c-3 -4 -4 -57 -4 -118 l2 -110 115 0 115 0 0 115 0 115
-112 3 c-61 1 -114 -1 -116 -5z"/>
<path d="M7350 7100 l0 -120 114 0 114 0 4 81 c2 45 2 99 0 120 l-4 39 -114 0
-114 0 0 -120z"/>
<path d="M780 6725 l0 -125 120 0 120 0 0 125 0 125 -120 0 -120 0 0 -125z"/>
<path d="M6980 6725 l0 -125 120 0 120 0 0 125 0 125 -120 0 -120 0 0 -125z"/>
<path d="M420 4000 l0 -2470 115 0 115 0 0 2470 0 2470 -115 0 -115 0 0 -2470z"/>
<path d="M7350 4006 l0 -2464 23 -6 c29 -8 155 -8 185 0 l22 6 0 2464 0 2464
-115 0 -115 0 0 -2464z"/>
<path d="M780 1275 l0 -125 120 0 120 0 0 125 0 125 -120 0 -120 0 0 -125z"/>
<path d="M6983 1333 c4 -38 7 -94 7 -125 l0 -58 115 0 115 0 0 125 0 125 -121
0 -122 0 6 -67z"/>
<path d="M420 900 l0 -120 115 0 115 0 0 120 0 120 -115 0 -115 0 0 -120z"/>
<path d="M784 1007 c-2 -7 -3 -60 -2 -118 l3 -104 113 -3 112 -3 0 121 0 120
-110 0 c-82 0 -112 -3 -116 -13z"/>
<path d="M1150 900 l0 -120 125 0 125 0 0 120 0 120 -125 0 -125 0 0 -120z"/>
<path d="M6600 900 l0 -120 125 0 125 0 0 120 0 120 -125 0 -125 0 0 -120z"/>
<path d="M6984 1007 c-2 -7 -3 -60 -2 -118 l3 -104 115 0 115 0 0 115 0 115
-113 3 c-87 2 -114 0 -118 -11z"/>
<path d="M7350 900 l0 -120 115 0 115 0 0 120 0 120 -115 0 -115 0 0 -120z"/>
<path d="M782 533 l3 -118 115 0 115 0 2 65 c1 36 -1 89 -4 118 l-6 52 -114 0
-114 0 3 -117z"/>
<path d="M1530 536 l0 -113 83 -6 c64 -4 4578 -2 4805 2 l52 1 0 115 0 115
-2470 0 -2470 0 0 -114z"/>
<path d="M6986 604 c-3 -26 -6 -78 -6 -115 l0 -69 120 0 120 0 0 115 0 115
-114 0 -113 0 -7 -46z"/>
</g>
</svg>
